<?xml version="1.0" encoding="UTF-8"?>
<svg width="30px" height="30px" viewBox="0 0 30 30" version="1.1" xmlns="http://www.w3.org/2000/svg" xmlns:xlink="http://www.w3.org/1999/xlink">
    <title>color/vimeo</title>
    <g id="color/vimeo" stroke="none" stroke-width="1" fill="none" fill-rule="evenodd">
        <path d="M25.8259671,12.9912988 C23.282225,18.5003818 17.1416193,26 13.2603814,26 C9.43539339,26 8.88227012,17.7305675 6.79373499,12.2267643 C5.76561321,9.5181582 5.10207362,10.1401344 3.17499632,11.5076373 L2,9.97117653 C4.81040787,7.46637587 7.62289906,4.55713227 9.35101865,4.39556629 C11.2968459,4.20654465 12.4947588,5.55503978 12.9426741,8.44210766 C13.5343389,12.2362682 14.3614196,18.1255065 15.8051651,18.1255065 C16.9301616,18.1255065 19.7020279,13.453821 19.8447358,11.7832499 C20.09786,9.33758446 18.070783,9.26366539 16.3114135,10.0271438 C19.0957798,0.783035486 30.6790769,2.48528619 25.8259671,12.9912988 Z" id="Path" fill="#00ADEF" fill-rule="nonzero"></path>
    </g>
</svg>