<?xml version="1.0" encoding="UTF-8"?>
<svg width="30px" height="30px" viewBox="0 0 30 30" version="1.1" xmlns="http://www.w3.org/2000/svg" xmlns:xlink="http://www.w3.org/1999/xlink">
    <title>color/youtube2</title>
    <g id="color/youtube2" stroke="none" stroke-width="1" fill="none" fill-rule="evenodd" transform="translate(0, -0)">
        <rect id="Rectangle" fill="#FFFFFF" x="5" y="16" width="20" height="10"></rect>
        <path d="M6.9172,2 L8.5012,2 L9.588,6.01054178 L10.5956,2 L12.195,2 L10.3635,7.96381212 L10.3635,12.0339379 L8.7894,12.0339379 L8.7894,7.96381212 L6.9172,2 Z M14.1706,4.57077678 C12.9397,4.57077678 12.1235,5.3724518 12.1235,6.55871415 L12.1235,10.1868353 C12.1235,11.4911822 12.8154,12.1704393 14.1706,12.1704393 C15.2948,12.1704393 16.1792,11.4305149 16.1792,10.1868353 L16.1792,6.55871415 C16.1792,5.40061876 15.3025,4.57077678 14.1706,4.57077678 Z M14.7547,10.1250846 C14.7547,10.5280888 14.5457,10.8249253 14.1695,10.8249253 C13.7834,10.8249253 13.5601,10.5140054 13.5601,10.1250846 L13.5601,6.6811321 C13.5601,6.27596121 13.7493,5.97587475 14.142,5.97587475 C14.571,5.97587475 14.7547,6.26729445 14.7547,6.6811321 L14.7547,10.1250846 L14.7547,10.1250846 Z M19.9566,4.63252742 L19.9566,10.2507526 C19.7861,10.4609215 19.4066,10.8054251 19.1349,10.8054251 C18.8368,10.8054251 18.7631,10.603923 18.7631,10.3070865 L18.7631,4.63252742 L17.3661,4.63252742 L17.3661,10.8184252 C17.3661,11.5496828 17.5927,12.1401056 18.3418,12.1401056 C18.7642,12.1401056 19.3516,11.9234367 19.9566,11.2160127 L19.9566,12.0328545 L21.3536,12.0328545 L21.3536,4.63252742 L19.9566,4.63252742 Z" id="Shape" fill="#000000" fill-rule="nonzero"></path>
        <path d="M7.4837,14.0608756 C10.3437,13.8691236 19.6519,13.8691236 22.5163,14.0608756 C25.615,14.2688778 25.9769,16.1192304 26,20.9585308 C25.9769,25.8054146 25.6117,27.6481838 22.5163,27.856186 C19.6519,28.047938 10.3437,28.047938 7.4837,27.856186 C4.385,27.6481838 4.0231,25.7978312 4,20.9585308 C4.0231,16.1105637 4.3883,14.2688778 7.4837,14.0608756 Z M22.4371,18.4115876 C21.237,18.4115876 20.4164,19.2620131 20.4164,20.4851092 L20.4164,23.6495588 C20.4164,24.9181554 21.0665,25.8303316 22.337,25.8303316 C23.7395,25.8303316 24.3313,25.0069897 24.3313,23.6495588 L24.3313,23.1198033 L22.9618,23.1198033 L22.961213,23.7288638 C22.9550484,24.2706812 22.8913267,24.5953187 22.3667,24.5953187 C21.8321,24.5953187 21.7859,24.1381473 21.7859,23.6094751 L21.7859,22.2791279 L24.3302,22.2791279 L24.3302,20.4851092 C24.3302,19.2110959 23.7142,18.4115876 22.4371,18.4115876 Z M11.8221,18.5892561 L10.4922,18.5892561 L10.4922,24.4804842 C10.4922,25.9104991 11.4767,25.9202492 12.1939,25.5150783 C12.459,25.3655767 12.7142,25.1467411 12.9595,24.8596548 L12.9595,25.6374962 L14.2894,25.6374962 L14.2894,18.5892561 L12.9584,18.5892561 L12.9584,23.9398952 C12.7967,24.1392306 12.4359,24.467484 12.1763,24.467484 C11.8914,24.467484 11.8221,24.2768154 11.8221,23.9929791 L11.8221,18.5892561 Z M16.9327,16.0823967 L15.5896,16.0823967 L15.5896,25.6374962 L16.9327,25.6374962 L16.9327,25.0958239 C17.3034,25.551912 17.7093,25.7274138 18.1966,25.7274138 C19.0821,25.7274138 19.4132,25.0492401 19.4132,24.1771477 L19.4143,20.267357 C19.4143,19.311847 19.0909,18.5004219 18.1163,18.5004219 C17.6411,18.5004219 17.233,18.7983416 16.9327,19.1590954 L16.9327,16.0823967 Z M10.5098,16.0823967 L5.9096,16.0823967 L5.9096,17.4690778 L7.4606,17.4690778 L7.4606,25.6374962 L8.9588,25.6374962 L8.9588,17.4690778 L10.5098,17.4690778 L10.5098,16.0823967 Z M17.2066,19.6888509 C17.4398,19.5729331 17.7401,19.5956833 17.9018,19.8047688 C17.9964,19.9282701 18.0437,20.1081053 18.0437,20.3464411 L18.0437,23.9853957 C18.0437,24.2107314 18.0052,24.3721497 17.9282,24.4718174 C17.7808,24.6603194 17.464,24.652736 17.2473,24.5444015 C17.145,24.4934843 17.0405,24.4111501 16.9316,24.2963156 L16.9316,19.9033532 C17.0229,19.8069355 17.1142,19.7354347 17.2066,19.6888509 Z M22.3799,19.6455171 C22.8595,19.6455171 22.9618,19.9943541 22.9607087,20.4710257 L22.9607087,21.1860332 L21.7848,21.1860332 L21.7848,20.4721091 C21.7848,19.9867707 21.8871,19.6455171 22.3799,19.6455171 Z" id="Combined-Shape" fill="#FF0000" fill-rule="nonzero"></path>
    </g>
</svg>