<svg width="253" height="253" viewBox="0 0 253 253" fill="none" xmlns="http://www.w3.org/2000/svg">
<path d="M226.219 72.4624C235.061 88.5971 240.093 107.113 240.093 126.809C240.093 168.602 217.444 205.09 183.765 224.726L218.365 124.686C224.828 108.525 226.98 95.6024 226.98 84.1118C226.98 79.9411 226.705 76.0704 226.219 72.4624ZM142.424 73.6958C149.244 73.3371 155.389 72.6198 155.389 72.6198C161.493 71.8971 160.773 62.9264 154.667 63.2838C154.667 63.2838 136.317 64.7238 124.472 64.7238C113.341 64.7238 94.6375 63.2838 94.6375 63.2838C88.5282 62.9264 87.8121 72.2584 93.9188 72.6198C93.9188 72.6198 99.6975 73.3371 105.801 73.6958L123.449 122.054L98.6548 196.405L57.4041 73.6958C64.2295 73.3371 70.3681 72.6198 70.3681 72.6198C76.4681 71.8971 75.7481 62.9264 69.6441 63.2838C69.6441 63.2838 51.2988 64.7238 39.4521 64.7238C37.3268 64.7238 34.8215 64.6718 32.1615 64.5864C52.4175 33.8344 87.2335 13.5264 126.812 13.5264C156.303 13.5264 183.156 24.8024 203.309 43.2691C202.821 43.2398 202.345 43.1784 201.843 43.1784C190.715 43.1784 182.819 52.8718 182.819 63.2838C182.819 72.6198 188.205 80.5184 193.947 89.8531C198.255 97.3984 203.287 107.09 203.287 121.096C203.287 130.79 199.557 142.042 194.667 157.717L183.364 195.47L142.424 73.6958ZM126.812 240.101C115.692 240.101 104.96 238.47 94.8081 235.485L128.801 136.718L163.62 232.117C163.849 232.677 164.131 233.193 164.431 233.678C152.656 237.824 140.004 240.101 126.812 240.101ZM13.5295 126.809C13.5295 110.385 17.0521 94.7944 23.3388 80.7064L77.3775 228.762C39.5842 210.402 13.5295 171.649 13.5295 126.809ZM126.812 0.813103C57.3361 0.813103 0.813477 57.3344 0.813477 126.809C0.813477 196.286 57.3361 252.814 126.812 252.814C196.287 252.814 252.812 196.286 252.812 126.809C252.812 57.3344 196.287 0.813103 126.812 0.813103Z" fill="#464342"/>
</svg>
