<?xml version="1.0" encoding="UTF-8"?>
<svg width="30px" height="30px" viewBox="0 0 30 30" version="1.1" xmlns="http://www.w3.org/2000/svg" xmlns:xlink="http://www.w3.org/1999/xlink">
    <title>color/instagram</title>
    <defs>
        <path d="M15,5.163 C18.204,5.163 18.584,5.175 19.85,5.233 C23.102,5.381 24.621,6.924 24.769,10.152 C24.827,11.417 24.838,11.797 24.838,15.001 C24.838,18.206 24.826,18.585 24.769,19.85 C24.62,23.075 23.105,24.621 19.85,24.769 C18.584,24.827 18.206,24.839 15,24.839 C11.796,24.839 11.416,24.827 10.151,24.769 C6.891,24.62 5.38,23.07 5.232,19.849 C5.174,18.584 5.162,18.205 5.162,15 C5.162,11.796 5.175,11.417 5.232,10.151 C5.381,6.924 6.896,5.38 10.151,5.232 C11.417,5.175 11.796,5.163 15,5.163 L15,5.163 Z M15,3 C11.741,3 11.333,3.014 10.053,3.072 C5.695,3.272 3.273,5.69 3.073,10.052 C3.014,11.333 3,11.741 3,15 C3,18.259 3.014,18.668 3.072,19.948 C3.272,24.306 5.69,26.728 10.052,26.928 C11.333,26.986 11.741,27 15,27 C18.259,27 18.668,26.986 19.948,26.928 C24.302,26.728 26.73,24.31 26.927,19.948 C26.986,18.668 27,18.259 27,15 C27,11.741 26.986,11.333 26.928,10.053 C26.732,5.699 24.311,3.273 19.949,3.073 C18.668,3.014 18.259,3 15,3 Z M15,8.838 C11.597,8.838 8.838,11.597 8.838,15 C8.838,18.403 11.597,21.163 15,21.163 C18.403,21.163 21.162,18.404 21.162,15 C21.162,11.597 18.403,8.838 15,8.838 Z M15,19 C12.791,19 11,17.21 11,15 C11,12.791 12.791,11 15,11 C17.209,11 19,12.791 19,15 C19,17.21 17.209,19 15,19 Z M21.406,7.155 C20.61,7.155 19.965,7.8 19.965,8.595 C19.965,9.39 20.61,10.035 21.406,10.035 C22.201,10.035 22.845,9.39 22.845,8.595 C22.845,7.8 22.201,7.155 21.406,7.155 Z" id="path-1"></path>
        <radialGradient cx="30.7620383%" cy="107.702106%" fx="30.7620383%" fy="107.702106%" r="99.107386%" id="radialGradient-3">
            <stop stop-color="#FFDD55" offset="0%"></stop>
            <stop stop-color="#FFDD55" offset="10%"></stop>
            <stop stop-color="#FF543E" offset="50%"></stop>
            <stop stop-color="#C837AB" offset="100%"></stop>
        </radialGradient>
        <rect id="path-4" x="3" y="3" width="24" height="24"></rect>
        <radialGradient cx="-19.3986978%" cy="7.20383154%" fx="-19.3986978%" fy="7.20383154%" r="44.5916075%" id="radialGradient-5">
            <stop stop-color="#3771C8" offset="0%"></stop>
            <stop stop-color="#3771C8" offset="12.8%"></stop>
            <stop stop-color="#6600FF" stop-opacity="0" offset="100%"></stop>
        </radialGradient>
        <rect id="path-6" x="3" y="3" width="24" height="24"></rect>
    </defs>
    <g id="color/instagram" stroke="none" stroke-width="1" fill="none" fill-rule="evenodd">
        <mask id="mask-2" fill="white">
            <use xlink:href="#path-1"></use>
        </mask>
        <use id="Shape" fill="#000000" fill-rule="nonzero" xlink:href="#path-1"></use>
        <g id="Rectangle" mask="url(#mask-2)">
            <use fill="#D8D8D8" xlink:href="#path-4"></use>
            <use fill="url(#radialGradient-3)" xlink:href="#path-4"></use>
        </g>
        <g id="Rectangle" mask="url(#mask-2)">
            <use fill="url(#radialGradient-3)" xlink:href="#path-6"></use>
            <use fill="url(#radialGradient-5)" xlink:href="#path-6"></use>
        </g>
    </g>
</svg>