<?xml version="1.0" encoding="UTF-8"?>
<svg width="30px" height="30px" viewBox="0 0 30 30" version="1.1" xmlns="http://www.w3.org/2000/svg" xmlns:xlink="http://www.w3.org/1999/xlink">
    <title>color/kakaotalk</title>
    <g id="color/kakaotalk" stroke="none" stroke-width="1" fill="none" fill-rule="evenodd">
        <path d="M15,3.00775098 C7.27081539,3.00775098 1.00516732,7.94806148 1.00516732,14.0421383 C1.00516732,17.9820874 3.62462322,21.4392148 7.56497601,23.3913593 C7.35061285,24.1306633 6.18742695,28.1474494 6.14113635,28.463006 C6.14113635,28.463006 6.11328125,28.7001107 6.26682071,28.7905389 C6.42036017,28.880967 6.60094734,28.8107237 6.60094734,28.8107237 C7.04124631,28.7492272 11.7067737,25.4720142 12.5143024,24.9029358 C13.3210238,25.0171821 14.1516978,25.0765256 15,25.0765256 C22.7291846,25.0765256 28.9948327,20.1363497 28.9948327,14.0421383 C28.9948327,7.94806148 22.7291846,3.00775098 15,3.00775098 Z" id="Path" fill="#FFE812" fill-rule="nonzero"></path>
        <path d="M7.26247232,17.8940814 C6.81719442,17.8940814 6.45507813,17.5482476 6.45507813,17.12302 L6.45507813,12.3264256 L5.19527405,12.3264256 C4.75833923,12.3264256 4.40295122,11.9717104 4.40295122,11.5358521 C4.40295122,11.0999938 4.75847379,10.7452787 5.19527405,10.7452787 L9.32967058,10.7452787 C9.76660541,10.7452787 10.1219934,11.0999938 10.1219934,11.5358521 C10.1219934,11.9717104 9.76647084,12.3264256 9.32967058,12.3264256 L8.06986651,12.3264256 L8.06986651,17.12302 C8.06986651,17.5482476 7.70775022,17.8940814 7.26247232,17.8940814 Z M14.3422429,17.8835859 C14.0055595,17.8835859 13.7480007,17.7468665 13.6703563,17.5269862 L13.2705616,16.4803342 L10.8085476,16.4801996 L10.4084838,17.5275245 C10.3311085,17.7470011 10.0736843,17.8835859 9.73700095,17.8835859 C9.55990316,17.8837666 9.38484801,17.8457631 9.22376738,17.7721649 C9.00119571,17.6694913 8.78723625,17.3871724 9.03241495,16.6256651 L10.9637019,11.5423113 C11.0997478,11.155704 11.512999,10.7573896 12.0388818,10.7454132 C12.5662448,10.757255 12.979496,11.155704 13.1158111,11.5431187 L15.0462906,16.6241849 C15.2920076,17.3874416 15.0780481,17.669895 14.8554764,17.7722995 C14.6943574,17.8457669 14.5193213,17.8837205 14.3422429,17.8835859 C14.3421083,17.8835859 14.3422429,17.8835859 14.3422429,17.8835859 L14.3422429,17.8835859 Z M12.8460069,15.0501699 L12.0395546,12.7591889 L11.2331024,15.0501699 L12.8460069,15.0501699 L12.8460069,15.0501699 Z M16.345657,17.7763364 C15.9189492,17.7763364 15.5719042,17.4442283 15.5719042,17.0362251 L15.5719042,11.5526729 C15.5719042,11.107395 15.9416908,10.7452787 16.3961191,10.7452787 C16.8505475,10.7452787 17.220334,11.107395 17.220334,11.5526729 L17.220334,16.2961137 L18.9360467,16.2961137 C19.3627545,16.2961137 19.7097995,16.6282219 19.7097995,17.0362251 C19.7097995,17.4442283 19.3627545,17.7763364 18.9360467,17.7763364 L16.345657,17.7763364 Z M20.83127,17.8835853 C20.3859921,17.8835853 20.0238758,17.521469 20.0238758,17.0761911 L20.0238758,11.5526729 C20.0238758,11.107395 20.3859921,10.7452787 20.83127,10.7452787 C21.2765479,10.7452787 21.6386642,11.107395 21.6386642,11.5526729 L21.6386642,13.2880321 L23.891294,11.0354023 C24.0071551,10.9195412 24.1663463,10.8557571 24.3391286,10.8557571 C24.540708,10.8557571 24.7430949,10.9426865 24.8947504,11.0942075 C25.0361789,11.2355015 25.1205516,11.4172998 25.1321243,11.6060954 C25.1438315,11.7965059 25.0804511,11.9710376 24.9539593,12.0976639 L23.1140425,13.9373116 L25.1014433,16.5702241 C25.2310557,16.7408382 25.2868906,16.9562773 25.256463,17.1683686 C25.2273917,17.380592 25.1145774,17.5723473 24.9431941,17.7008451 C24.8035723,17.8069712 24.6329226,17.8642327 24.4575464,17.8638041 C24.2038656,17.8649847 23.9646185,17.7459352 23.812573,17.5428649 L21.9190991,15.0340221 L21.6389333,15.3141878 L21.6389333,17.0757874 C21.6384144,17.5216542 21.2771367,17.8829921 20.83127,17.8835853 L20.83127,17.8835853 Z" id="Shape" fill="#000000" fill-rule="nonzero"></path>
    </g>
</svg>