<?xml version="1.0" encoding="UTF-8"?>
<svg width="30px" height="30px" viewBox="0 0 30 30" version="1.1" xmlns="http://www.w3.org/2000/svg" xmlns:xlink="http://www.w3.org/1999/xlink">
    <title>color/linkedin</title>
    <g id="color/linkedin" stroke="none" stroke-width="1" fill="none" fill-rule="evenodd">
        <path d="M9.565,6.2826087 C9.565,7.54352174 8.5475,8.56521739 7.29166667,8.56521739 C6.03583333,8.56521739 5.01833333,7.54352174 5.01833333,6.2826087 C5.01833333,5.0226087 6.03583333,4 7.29166667,4 C8.5475,4 9.565,5.0226087 9.565,6.2826087 Z M9.58333333,10.3913043 L5,10.3913043 L5,25 L9.58333333,25 L9.58333333,10.3913043 Z M16.9001667,10.3913043 L12.3461667,10.3913043 L12.3461667,25 L16.9010833,25 L16.9010833,17.3313478 C16.9010833,13.0674348 22.4276667,12.7186522 22.4276667,17.3313478 L22.4276667,25 L27,25 L27,15.7499565 C27,8.55517391 18.8215,8.81721739 16.9001667,12.358913 L16.9001667,10.3913043 Z" id="Shape" fill="#0077B5" fill-rule="nonzero"></path>
    </g>
</svg>