<?xml version="1.0" encoding="UTF-8"?>
<svg width="30px" height="30px" viewBox="0 0 30 30" version="1.1" xmlns="http://www.w3.org/2000/svg" xmlns:xlink="http://www.w3.org/1999/xlink">
    <title>color/pinterest2</title>
    <g id="color/pinterest2" stroke="none" stroke-width="1" fill="none" fill-rule="evenodd">
        <path d="M27.9937739,14.9973317 C27.9937739,22.1721173 22.1753786,27.9905127 15.000593,27.9905127 C7.82580733,27.9905127 2.00741197,22.1721173 2.00741197,14.9973317 C2.00741197,7.82254607 7.82580733,2.0041507 15.000593,2.0041507 C22.1753786,2.0041507 27.9937739,7.82254607 27.9937739,14.9973317 Z" id="Path" fill="#CA2127" fill-rule="nonzero"></path>
        <path d="M13.9110336,6.35497628 C10.2495211,6.74781062 6.60283251,9.56435869 6.45459314,13.5964696 C6.35823755,16.0572432 7.38850119,17.9028234 9.84927477,18.4216612 C10.1309296,17.2579821 10.1828134,16.6279648 10.1828134,16.6279648 C10.1828134,16.6279648 9.10066594,15.5902892 8.98948641,14.930624 C8.08522624,9.62365444 15.4156632,5.99920179 19.2624749,9.7051861 C21.9159597,12.2771392 20.1667351,20.1857097 15.8826172,19.3629812 C11.7763866,18.5773125 17.8912607,12.2845512 14.6151706,11.0467524 C11.9542739,10.0387247 10.5385878,14.1227194 11.7986225,16.1461868 C11.0574257,19.6298121 9.4638524,22.9133142 10.1086937,27.2789637 C12.2062808,25.8336298 12.9104178,23.0615535 13.4885514,20.1708858 C14.5410509,20.7786672 15.1043605,21.4160965 16.4459268,21.5124521 C21.3971219,21.8756386 24.1617862,16.805852 23.487297,12.1214879 C22.8795156,7.97078544 18.536102,5.85837438 13.9110336,6.35497628 L13.9110336,6.35497628 Z" id="Path" fill="#FFFFFF" fill-rule="nonzero"></path>
    </g>
</svg>