<?xml version="1.0" encoding="UTF-8"?>
<svg width="30px" height="30px" viewBox="0 0 30 30" version="1.1" xmlns="http://www.w3.org/2000/svg" xmlns:xlink="http://www.w3.org/1999/xlink">
    <title>color/pinterest</title>
    <g id="color/pinterest" stroke="none" stroke-width="1" fill="none" fill-rule="evenodd">
        <path d="M15.0758472,3 C8.37767917,3 5,7.89121945 5,11.9709183 C5,14.4406326 5.91800301,16.6376639 7.88663138,17.4557129 C8.2095594,17.5913011 8.49896206,17.4607346 8.59263584,17.0966552 C8.65771446,16.8455659 8.81202968,16.2098078 8.88055945,15.9441553 C8.97472624,15.5840933 8.93824277,15.4585486 8.67743526,15.1436826 C8.10996938,14.4622263 7.74661373,13.5793963 7.74661373,12.3279673 C7.74661373,8.6992248 10.4123722,5.45063151 14.6878406,5.45063151 C18.4737402,5.45063151 20.5537911,7.80685345 20.5537911,10.9530023 C20.5537911,15.0939669 18.7547615,18.5886277 16.0845659,18.5886277 C14.6094504,18.5886277 13.5060719,17.3467401 13.8590742,15.8226281 C14.2825782,14.0032351 15.1034563,12.0407211 15.1034563,10.7265198 C15.1034563,9.55142187 14.4837303,8.57116926 13.2023717,8.57116926 C11.6947169,8.57116926 10.4833671,10.1600623 10.4833671,12.287793 C10.4833671,13.643173 10.9330012,14.5601511 10.9330012,14.5601511 C10.9330012,14.5601511 9.390342,21.2190392 9.11967409,22.3850979 C8.58129638,24.7076738 9.03881883,27.5540221 9.0777674,27.8412682 C9.10044631,28.012009 9.31540298,28.0531876 9.41302091,27.9246299 C9.5515595,27.739326 11.3481239,25.4815311 11.9579895,23.2247405 C12.1310395,22.5864715 12.9494525,19.2781189 12.9494525,19.2781189 C13.4395142,20.2302496 14.871244,21.0668791 16.3936893,21.0668791 C20.925035,21.0668791 24,16.8591247 24,11.2266896 C24.000493,6.96670867 20.4586382,3 15.0758472,3 Z" id="Path" fill="#CA2127" fill-rule="nonzero"></path>
    </g>
</svg>