<?xml version="1.0" encoding="UTF-8"?>
<svg width="30px" height="30px" viewBox="0 0 30 30" version="1.1" xmlns="http://www.w3.org/2000/svg" xmlns:xlink="http://www.w3.org/1999/xlink">
    <title>color/snapchat</title>
    <g id="color/snapchat" stroke="none" stroke-width="1" fill="none" fill-rule="evenodd">
        <path d="M8.82888045,7.90084071 C8.22886883,9.26862832 8.46587342,11.7192478 8.56187528,13.4330531 C7.91386272,13.7984071 7.08184661,13.1572566 6.61083748,13.1572566 C6.12082799,13.1572566 5.53581666,13.4849558 5.44381487,13.9734513 C5.3778136,14.3255752 5.5328166,14.8384956 6.64483814,15.2852655 C7.07484647,15.4582743 8.09786629,15.6618142 8.33487088,16.2296903 C8.66787733,17.0275664 6.62483775,20.7106195 3.41677561,21.2479646 C3.16577074,21.2896903 2.98676728,21.5176549 3.00076755,21.7761504 C3.05676863,22.7684071 5.24281098,23.1571681 6.21182975,23.309823 C6.31083167,23.4461947 6.39083322,24.0222124 6.51783568,24.4608407 C6.57483678,24.6572566 6.72183963,24.8923451 7.09984696,24.8923451 C7.59285651,24.8923451 8.41187237,24.5056195 9.8379,24.7457965 C11.2359271,24.9829204 12.5499525,27 15.0730014,27 C17.4180468,27 18.8170739,24.9737611 20.1631,24.7457965 C20.9421151,24.6145133 21.6111281,24.6562389 22.3591426,24.804823 C22.8741525,24.9076106 23.3361615,24.9646018 23.4831643,24.449646 C23.6121668,24.0049115 23.6911684,23.4400885 23.7881702,23.3067699 C24.7481888,23.1551327 26.9442314,22.7673894 26.9992325,21.7751327 C27.0132327,21.5166372 26.8342293,21.2896903 26.5832244,21.2469469 C23.4291633,20.7177434 21.3241225,17.045885 21.6651291,16.2286726 C21.9011337,15.6618142 22.9171534,15.4603097 23.3551619,15.2842478 C24.1691776,14.9575664 24.5771855,14.5555752 24.5681854,14.0904867 C24.5571851,13.4951327 23.8531715,13.1399558 23.3351615,13.1399558 C22.8081513,13.1399558 22.0511366,13.775 21.4381247,13.4310177 C21.5341266,11.7029646 21.7701312,9.26353982 21.1711195,7.89676991 C20.0360976,5.30876106 17.5110486,4 14.9869997,4 C12.4789512,4 9.97290261,5.29044248 8.82888045,7.90084071 Z" id="Path" stroke="#000000" fill="#FFFC00" fill-rule="nonzero"></path>
    </g>
</svg>