<?xml version="1.0" encoding="UTF-8"?>
<svg width="30px" height="30px" viewBox="0 0 30 30" version="1.1" xmlns="http://www.w3.org/2000/svg" xmlns:xlink="http://www.w3.org/1999/xlink">
    <title>color/tiktok</title>
    <g id="color/tiktok" stroke="none" stroke-width="1" fill="none" fill-rule="evenodd">
        <path d="M20.3044933,11.4628356 C21.9096133,12.6096222 23.87612,13.2844356 25.9998533,13.2844356 L25.9998533,9.19962222 C25.5978906,9.19978172 25.197016,9.15785087 24.8037867,9.07451556 L24.8037867,12.2898889 C22.6802,12.2898889 20.7139867,11.6150756 19.1084267,10.4682889 L19.1084267,18.8040889 C19.1084267,22.9741156 15.7262933,26.3543422 11.55436,26.3543422 C9.99778667,26.3543422 8.55092,25.8839822 7.34898667,25.0773156 C8.72076,26.4791556 10.6337333,27.3488889 12.7501333,27.3488889 C16.92236,27.3488889 20.30464,23.9686622 20.30464,19.7984889 L20.30464,11.4628356 L20.3044933,11.4628356 Z M21.77996,7.34179556 C20.9596533,6.44610222 20.4210933,5.28846222 20.3044933,4.00864889 L20.3044933,3.48328889 L19.1710533,3.48328889 C19.45632,5.10982222 20.4294533,6.49948889 21.77996,7.34179556 L21.77996,7.34179556 Z M9.98766667,21.8774889 C9.52940029,21.2768843 9.28168129,20.5420774 9.28278667,19.7866089 C9.28278667,17.8793556 10.8298267,16.3330489 12.7384,16.3330489 C13.0940449,16.3328015 13.4476036,16.3873664 13.7866267,16.4948222 L13.7866267,12.3187822 C13.3905053,12.2645311 12.9907295,12.2415312 12.591,12.2499956 L12.591,15.5004222 C12.2518262,15.3929651 11.8981224,15.3384007 11.5423333,15.3386489 C9.63376,15.3386489 8.08686667,16.8849556 8.08686667,18.7923556 C8.08686667,20.1409556 8.86009333,21.3087156 9.98766667,21.8774889 L9.98766667,21.8774889 Z" id="Shape" fill="#EE1D52" fill-rule="nonzero"></path>
        <path d="M19.1084267,10.4682889 C20.7139867,11.6150756 22.6802,12.2898889 24.8037867,12.2898889 L24.8037867,9.07451556 C23.6184267,8.82224889 22.5690267,8.20302222 21.77996,7.34179556 C20.4294533,6.49948889 19.45632,5.10982222 19.1710533,3.48328889 L16.1938667,3.48328889 L16.1938667,19.7983422 C16.18712,21.7003156 14.64272,23.2403156 12.7382533,23.2403156 C11.61596,23.2403156 10.61892,22.7057156 9.98752,21.8774889 C8.85994667,21.3087156 8.08672,20.1409556 8.08672,18.7923556 C8.08672,16.8849556 9.63361333,15.3386489 11.5421867,15.3386489 C11.9078267,15.3386489 12.2602667,15.3955556 12.5908533,15.5004222 L12.5908533,12.2499956 C8.49225333,12.3346222 5.19592,15.6818489 5.19592,19.7984889 C5.19592,21.8534356 6.01681333,23.7163956 7.34898667,25.0774622 C8.55092,25.8841289 9.99778667,26.3544889 11.55436,26.3544889 C15.7262933,26.3544889 19.1084267,22.9741156 19.1084267,18.8042356 L19.1084267,10.4682889 Z" id="Path" fill="#000000" fill-rule="nonzero"></path>
        <path d="M24.8037867,9.07451556 L24.8037867,8.20507556 C23.7347964,8.20668807 22.6869227,7.90747711 21.77996,7.34164889 C22.5827863,8.22015227 23.6399449,8.82597897 24.8037867,9.07451556 L24.8037867,9.07451556 Z M19.1710533,3.48328889 C19.1438025,3.32785979 19.1229095,3.17138279 19.1084267,3.01424889 L19.1084267,2.48888889 L14.9976533,2.48888889 L14.9976533,18.8040889 C14.9910533,20.7059156 13.4468,22.2459156 11.5421867,22.2459156 C10.9829467,22.2459156 10.4550933,22.1133289 9.98752,21.8774889 C10.61892,22.7057156 11.61596,23.2403156 12.7382533,23.2403156 C14.6425733,23.2403156 16.18712,21.7003156 16.1938667,19.7983422 L16.1938667,3.48328889 L19.1710533,3.48328889 Z M12.591,12.2499956 L12.591,11.3243822 C12.247502,11.2774196 11.9012001,11.2539473 11.5545067,11.2541278 C7.38213333,11.2541278 4,14.6345022 4,18.8040889 C4,21.4182756 5.32924,23.7221156 7.34913333,25.0773156 C6.01696,23.7162489 5.19606667,21.8532889 5.19606667,19.7983422 C5.19606667,15.6818489 8.49225333,12.3346222 12.591,12.2499956 L12.591,12.2499956 Z" id="Shape" fill="#69C9D0" fill-rule="nonzero"></path>
    </g>
</svg>