<?xml version="1.0" encoding="UTF-8"?>
<svg width="30px" height="30px" viewBox="0 0 30 30" version="1.1" xmlns="http://www.w3.org/2000/svg" xmlns:xlink="http://www.w3.org/1999/xlink">
    <title>color/twitter</title>
    <g id="color/twitter" stroke="none" stroke-width="1" fill="none" fill-rule="evenodd">
        <path d="M28.4,6.8127 C27.4287,7.2439 26.3848,7.5343 25.2892,7.6652 C26.4079,6.9953 27.267,5.9338 27.6707,4.6688 C26.6246,5.2892 25.4652,5.7402 24.231,5.9833 C23.2443,4.9306 21.8352,4.2728 20.2776,4.2728 C16.7807,4.2728 14.2111,7.5354 15.0009,10.9223 C10.5008,10.6968 6.51,8.5408 3.8381,5.2639 C2.4191,7.6982 3.1022,10.8827 5.5134,12.4953 C4.6268,12.4667 3.7908,12.2236 3.0615,11.8177 C3.0021,14.3268 4.8006,16.6742 7.4054,17.1967 C6.6431,17.4035 5.8082,17.4519 4.959,17.2891 C5.6476,19.4407 7.6474,21.006 10.019,21.05 C7.742,22.8353 4.8732,23.6328 2,23.294 C4.3969,24.8307 7.2448,25.7272 10.3028,25.7272 C20.359,25.7272 26.0405,17.2341 25.6973,9.6166 C26.7555,8.8521 27.674,7.8984 28.4,6.8127 Z" id="Path" fill="#1DA1F2" fill-rule="nonzero"></path>
    </g>
</svg>