<?xml version="1.0" encoding="UTF-8"?>
<svg width="30px" height="30px" viewBox="0 0 30 30" version="1.1" xmlns="http://www.w3.org/2000/svg" xmlns:xlink="http://www.w3.org/1999/xlink">
    <title>color/wechat</title>
    <g id="color/wechat" stroke="none" stroke-width="1" fill="none" fill-rule="evenodd" transform="translate(0, 0)">
        <path d="M26.0856667,24.4186334 C27.8636667,23.1089869 29,21.1735546 29,19.0212305 C29,15.0792538 25.2235,11.8827682 20.5661667,11.8827682 C15.9088333,11.8827682 12.1323333,15.0792538 12.1323333,19.0212305 C12.1323333,22.9643925 15.9088333,26.1608781 20.5661667,26.1608781 C21.5286667,26.1608781 22.4573333,26.0222096 23.3195,25.7697619 L23.5668333,25.7318355 C23.729,25.7318355 23.876,25.7827991 24.0148333,25.8633928 L25.8616667,26.946666 L26.0238333,27 C26.179,27 26.305,26.8719984 26.305,26.7143667 L26.2595,26.5057714 L25.8791667,25.0657529 L25.85,24.883232 C25.85,24.6912295 25.9433333,24.5217459 26.0856667,24.4186334 L26.0856667,24.4186334 Z M11.1208333,4 C5.53133333,4 1,7.83530867 1,12.5678141 C1,15.1491807 2.36266667,17.4733588 4.4965,19.0437494 C4.668,19.1670102 4.78,19.3708647 4.78,19.6019788 L4.745,19.8200557 L4.28883333,21.5480779 L4.234,21.7981552 C4.234,21.9877873 4.38566667,22.1418633 4.57116667,22.1418633 L4.76716667,22.0778625 L6.98266667,20.7776976 C7.14833333,20.6805112 7.3245,20.620066 7.51933333,20.620066 L7.81683333,20.6651036 C8.8505,20.9673297 9.96583333,21.1356282 11.1208333,21.1356282 L11.6761667,21.1214058 C11.4568333,20.4529527 11.3366667,19.7489436 11.3366667,19.0224157 C11.3366667,14.7071009 15.469,11.2083892 20.5661667,11.2083892 L21.1156667,11.2226116 C20.3538333,7.1301144 16.169,4 11.1208333,4 L11.1208333,4 Z M17.7545,17.8798825 C17.1338333,17.8798825 16.631,17.3678759 16.631,16.7373493 C16.631,16.1056374 17.1338333,15.594816 17.7545,15.594816 C18.3763333,15.594816 18.8791667,16.1056374 18.8791667,16.7373493 C18.8791667,17.3678759 18.3763333,17.8798825 17.7545,17.8798825 Z M23.3778333,17.8798825 C22.756,17.8798825 22.2531667,17.3678759 22.2531667,16.7373493 C22.2531667,16.1056374 22.756,15.594816 23.3778333,15.594816 C23.9985,15.594816 24.5013333,16.1056374 24.5013333,16.7373493 C24.5013333,17.3678759 23.9985,17.8798825 23.3778333,17.8798825 Z M7.74683333,11.1965372 C7.00133333,11.1965372 6.39816667,10.5826033 6.39816667,9.82644543 C6.39816667,9.06910234 7.00133333,8.4551685 7.74683333,8.4551685 C8.49233333,8.4551685 9.09666667,9.06910234 9.09666667,9.82644543 C9.09666667,10.5826033 8.49233333,11.1965372 7.74683333,11.1965372 Z M14.4936667,11.1965372 C13.7481667,11.1965372 13.145,10.5826033 13.145,9.82644543 C13.145,9.06910234 13.7481667,8.4551685 14.4936667,8.4551685 C15.2391667,8.4551685 15.8435,9.06910234 15.8435,9.82644543 C15.8435,10.5826033 15.2391667,11.1965372 14.4936667,11.1965372 Z" id="Shape" fill="#1BAC19"></path>
    </g>
</svg>