<?xml version="1.0" encoding="UTF-8"?>
<svg width="30px" height="30px" viewBox="0 0 30 30" version="1.1" xmlns="http://www.w3.org/2000/svg" xmlns:xlink="http://www.w3.org/1999/xlink">
    <title>color/weibo</title>
    <g id="color/weibo" stroke="none" stroke-width="1" fill="none" fill-rule="evenodd">
        <path d="M3.1303135,19.1549416 C3.1303135,22.5287726 7.52268863,25.2646652 12.9420829,25.2646652 C18.3614772,25.2646652 22.7538523,22.5283874 22.7538523,19.1549416 C22.7538523,15.7814957 18.3610919,13.0456031 12.9420829,13.0456031 C7.52307386,13.0456031 3.1303135,15.7811105 3.1303135,19.1549416" id="Path" fill="#FFFFFF" fill-rule="nonzero"></path>
        <path d="M13.1705234,24.7669501 C8.3744288,25.2400106 4.23437832,23.0727152 3.92234325,19.9234724 C3.61107864,16.775 7.24802072,13.8387885 12.0433448,13.3645723 C16.8398247,12.8899708 20.9802604,15.0580367 21.291525,18.2057386 C21.6024044,21.3553666 17.9670032,24.2923486 13.1705234,24.7669501 M22.7638682,14.3137752 C22.3559113,14.192043 22.0762354,14.1084485 22.289652,13.5725956 C22.7523114,12.4084352 22.8000797,11.4045298 22.2985122,10.6880048 C21.3581695,9.34471307 18.7848433,9.4167508 15.8351488,10.6521785 C15.8351488,10.6502524 14.9090595,11.0574389 15.1455898,10.3228082 C15.5993889,8.86394793 15.5308183,7.64238842 14.8246945,6.93703507 C13.2248406,5.33564028 8.96922157,6.99751594 5.31956695,10.6456296 C2.58675611,13.3788257 1,16.2753587 1,18.7801142 C1,23.5712009 7.14400903,26.4839134 13.154729,26.4839134 C21.0338071,26.4839134 26.2752258,21.9058581 26.2752258,18.2716126 C26.2752258,16.0754251 24.4257439,14.8292109 22.7638682,14.3137752" id="Shape" fill="#E6162D" fill-rule="nonzero"></path>
        <path d="M27.9960414,5.54636026 C26.093398,3.4368491 23.2866233,2.63287726 20.6959617,3.18336876 L20.6951913,3.18336876 C20.3076284,3.26615253 19.9936701,3.54941025 19.8715814,3.92644147 C19.7494928,4.3034727 19.8378221,4.71699742 20.1032964,5.01124487 C20.3687707,5.30549233 20.7710582,5.43575933 21.1586211,5.35297556 C23.0015542,4.96158342 24.995882,5.5348034 26.3495749,7.03257173 C27.6551289,8.47939265 28.0893878,10.5129344 27.4886955,12.3668305 L27.4890808,12.3672157 C27.3981808,12.6472031 27.422444,12.9518551 27.5565146,13.2139253 C27.6905853,13.4759954 27.9234398,13.6739357 28.2036796,13.7640542 C28.786058,13.9523639 29.410922,13.6334677 29.6001328,13.0513815 L29.6005181,13.0467588 C30.4125797,10.526594 29.8994554,7.65356004 27.9960414,5.54636026" id="Path" fill="#FF9933" fill-rule="nonzero"></path>
        <path d="M25.0736982,8.1832492 C24.1476089,7.15584485 22.780433,6.7656084 21.5180393,7.03411265 C21.1760415,7.09667947 20.8951042,7.34023668 20.7846685,7.66990478 C20.6742328,7.99957289 20.7517645,8.36321384 20.9870605,8.61916865 C21.2223566,8.87512346 21.5782042,8.98291207 21.9159803,8.90054463 L21.9159803,8.90131509 C22.5542843,8.76481777 23.2169794,8.9785241 23.6552869,9.46220776 C24.0928676,9.94715738 24.2378761,10.6290057 24.0355074,11.2500531 L24.0362779,11.2500531 C23.8740676,11.7518194 24.1490816,12.2901227 24.6507173,12.4527365 C25.1527024,12.6145984 25.690886,12.3390401 25.8530154,11.8371413 C26.2498007,10.6094182 26.0017136,9.21026833 25.0736982,8.1832492" id="Path" fill="#FF9933" fill-rule="nonzero"></path>
        <path d="M13.4351753,19.0636424 C13.2672157,19.3510228 12.8966259,19.4889346 12.6061637,19.3691286 C12.3203241,19.2512487 12.2305659,18.9307386 12.3931323,18.6487513 C12.5603215,18.368305 12.917043,18.2315489 13.2017269,18.3444208 C13.4914187,18.4503587 13.5954304,18.7751063 13.4351753,19.0636424 M11.906974,21.0256111 C11.4431589,21.765635 10.4496546,22.0899973 9.70115569,21.7482997 C8.96382837,21.4127657 8.74617428,20.5525505 9.21075983,19.8310175 C9.66879649,19.1125664 10.6287859,18.7920563 11.3715064,19.1033209 C12.1227019,19.423831 12.3630845,20.2778826 11.906974,21.0256111 M13.6501328,15.7872742 C11.3676541,15.1932519 8.78777896,16.3308316 7.79658608,18.3421095 C6.78690223,20.3930659 7.76345643,22.6697662 10.0686637,23.4144129 C12.4574655,24.1844846 15.2727152,23.0045298 16.2515808,20.7902365 C17.2173486,18.6260228 16.0119687,16.3978613 13.6501328,15.7872742" id="Shape" fill="#000000" fill-rule="nonzero"></path>
    </g>
</svg>