<?xml version="1.0" encoding="UTF-8"?>
<svg width="30px" height="30px" viewBox="0 0 30 30" version="1.1" xmlns="http://www.w3.org/2000/svg" xmlns:xlink="http://www.w3.org/1999/xlink">
    <title>color/youtube</title>
    <g id="color/youtube" stroke="none" stroke-width="1" fill="none" fill-rule="evenodd">
        <path d="M28.4231025,8.10142344 C28.1003194,6.88871503 27.1546141,5.93280279 25.9553394,5.60624622 C23.7642171,5 14.9997275,5 14.9997275,5 C14.9997275,5 6.23545162,5 4.04432926,5.58313672 C2.86812568,5.90947732 1.89934922,6.88893099 1.57656619,8.10142344 C1,10.3164791 1,14.9103006 1,14.9103006 C1,14.9103006 1,19.5272315 1.57656619,21.7191777 C1.89956288,22.9316701 2.84505449,23.8877983 4.04454286,24.2143549 C6.25852282,24.8206011 14.9999411,24.8206011 14.9999411,24.8206011 C14.9999411,24.8206011 23.7642171,24.8206011 25.9553394,24.2374644 C27.1548278,23.9111238 28.1003194,22.9549956 28.4233161,21.7425031 C29,19.5272315 29,14.933626 29,14.933626 C29,14.933626 29.0229535,10.3164791 28.4231025,8.10142344 Z" id="Path" fill="#FF0000" fill-rule="nonzero"></path>
        <polygon id="Path" fill="#FFFFFF" fill-rule="nonzero" points="12.3327222 19.15424 19.7011946 14.9103006 12.3327222 10.6663611"></polygon>
    </g>
</svg>