<svg width="16" height="16" viewBox="0 0 16 16" fill="none" xmlns="http://www.w3.org/2000/svg">
<path d="M4.66335 3.86783L12.1322 3.86783L12.1322 11.3366L10.7069 11.3366L10.7124 8.801C10.7124 8.44008 10.718 8.06627 10.729 7.67957C10.7401 7.30024 10.7511 6.92091 10.7622 6.54157C10.7769 6.16592 10.7935 5.79948 10.8119 5.44224L11.2096 5.70741C11.0623 5.87682 10.9113 6.04623 10.7566 6.21564C10.5983 6.38873 10.4381 6.55999 10.276 6.7294C10.1177 6.90249 9.95745 7.07006 9.7954 7.23211L4.38162 12.6459L3.3541 11.6184L8.76789 6.20459C8.92993 6.04255 9.09566 5.8805 9.26507 5.71846C9.43817 5.56009 9.61126 5.40173 9.78435 5.24337C9.95377 5.08869 10.1232 4.93769 10.2926 4.79038L10.5578 5.18813C10.2926 5.20286 10.0201 5.21391 9.74016 5.22127C9.45658 5.23232 9.17116 5.24153 8.8839 5.24889C8.59664 5.26362 8.31122 5.27283 8.02764 5.27651C7.74406 5.2802 7.46784 5.28388 7.199 5.28756L4.65783 5.28756L4.66335 3.86783Z" fill="white"/>
</svg>
