<svg width="24" height="24" viewBox="0 0 24 24" fill="none" xmlns="http://www.w3.org/2000/svg">
<path d="M13.125 16.8208H10.875V10.1411H13.125V16.8208Z" fill="#5C5C5C"/>
<path d="M13.125 9.43066H10.875V7.18066H13.125V9.43066Z" fill="#5C5C5C"/>
<path fill-rule="evenodd" clip-rule="evenodd" d="M12 3C13.1819 3 14.3519 3.23328 15.4438 3.68555C16.5358 4.13784 17.5276 4.80099 18.3633 5.63672C19.199 6.47245 19.8622 7.46422 20.3145 8.55615C20.7667 9.64806 21 10.8181 21 12C21 13.1819 20.7667 14.3519 20.3145 15.4438C19.8622 16.5358 19.199 17.5276 18.3633 18.3633C17.5276 19.199 16.5358 19.8622 15.4438 20.3145C14.3519 20.7667 13.1819 21 12 21C10.8181 21 9.64805 20.7667 8.55615 20.3145C7.46422 19.8622 6.47245 19.199 5.63672 18.3633C4.80099 17.5276 4.13784 16.5358 3.68555 15.4438C3.23328 14.3519 3 13.1819 3 12C3 10.8181 3.23328 9.64805 3.68555 8.55615C4.13784 7.46422 4.80099 6.47245 5.63672 5.63672C6.47245 4.80099 7.46422 4.13784 8.55615 3.68555C9.64806 3.23328 10.8181 3 12 3ZM12 5.25C11.1137 5.25 10.2363 5.42505 9.41748 5.76416C8.59853 6.10338 7.85433 6.60074 7.22754 7.22754C6.60074 7.85433 6.10338 8.59853 5.76416 9.41748C5.42505 10.2363 5.25 11.1137 5.25 12C5.25 12.8863 5.42505 13.7637 5.76416 14.5825C6.10338 15.4015 6.60074 16.1457 7.22754 16.7725C7.85433 17.3993 8.59853 17.8966 9.41748 18.2358C10.2363 18.575 11.1137 18.75 12 18.75C12.8863 18.75 13.7637 18.575 14.5825 18.2358C15.4015 17.8966 16.1457 17.3993 16.7725 16.7725C17.3993 16.1457 17.8966 15.4015 18.2358 14.5825C18.575 13.7637 18.75 12.8863 18.75 12C18.75 11.1137 18.575 10.2363 18.2358 9.41748C17.8966 8.59853 17.3993 7.85433 16.7725 7.22754C16.1457 6.60074 15.4015 6.10338 14.5825 5.76416C13.7637 5.42505 12.8863 5.25 12 5.25Z" fill="#5C5C5C"/>
</svg>
