<svg height="800" viewBox="0 0 348.882 348.882" width="800" xmlns="http://www.w3.org/2000/svg"><path fill="#464342" d="m333.988 11.758-.42-.383c-8.03-7.335-18.439-11.375-29.31-11.375-12.187 0-23.888 5.159-32.104 14.153l-155.351 170.078c-1.416 1.55-2.49 3.379-3.154 5.37l-18.267 54.762c-2.112 6.331-1.052 13.333 2.835 18.729 3.918 5.438 10.23 8.685 16.886 8.685h.001c2.879 0 5.693-.592 8.362-1.76l52.89-23.138c1.923-.841 3.648-2.076 5.063-3.626l155.352-170.077c16.166-17.697 14.919-45.247-2.783-61.418zm-203.607 222.489 10.719-32.134.904-.99 20.316 18.556-.904.99zm184.24-181.304-132.068 144.587-20.316-18.556 132.068-144.588c2.583-2.828 6.118-4.386 9.954-4.386 3.365 0 6.588 1.252 9.082 3.53l.419.383c5.484 5.009 5.87 13.546.861 19.03z"/><path fill="#464342" d="m303.85 138.388c-8.284 0-15 6.716-15 15v127.347c0 21.034-17.113 38.147-38.147 38.147h-181.799c-21.035 0-38.147-17.113-38.147-38.147v-180.322c0-21.034 17.113-38.147 38.147-38.147h131.587c8.284 0 15-6.716 15-15s-6.716-15-15-15h-131.587c-37.577 0-68.147 30.571-68.147 68.147v180.321c0 37.576 30.571 68.147 68.147 68.147h181.798c37.576 0 68.147-30.571 68.147-68.147v-127.346c.001-8.284-6.715-15-14.999-15z"/></svg>