<svg width="113" height="24" viewBox="0 0 113 24" fill="none" xmlns="http://www.w3.org/2000/svg">
<path d="M16.8888 10.355H3.36301V0.264382H0V23.7062H3.36301V13.2632H16.8888V23.7062H20.2518V0.264382H16.8888V10.355Z" fill="#161616"/>
<path d="M32.7155 0.264382L22.0512 23.7062H25.5175L28.0987 17.8458H40.6215L43.2028 23.7062H46.728L36.049 0.264382H32.7155ZM29.2935 15.1726L34.3675 3.67197L39.4415 15.1726H29.2935Z" fill="#161616"/>
<path d="M63.027 1.24847C61.5667 0.602203 59.8115 0.279069 57.7465 0.279069H48.572V23.7209H51.935V16.6267H57.7465C59.8115 16.6267 61.5667 16.3035 63.027 15.6426C64.4873 14.9816 65.6083 14.0416 66.39 12.8225C67.1718 11.6034 67.57 10.1493 67.57 8.44553C67.57 6.74174 67.1718 5.28764 66.39 4.05385C65.6083 2.82007 64.4873 1.89474 63.027 1.23378V1.24847ZM62.5402 12.3231C61.434 13.2338 59.7967 13.6891 57.6432 13.6891H51.9202V3.18727H57.6432C59.7967 3.18727 61.434 3.64259 62.5402 4.55324C63.6465 5.46389 64.207 6.75642 64.207 8.43084C64.207 10.1053 63.6465 11.3978 62.5402 12.3084V12.3231Z" fill="#161616"/>
<path d="M88.2493 0.264382H68.7792V3.18727H76.8475V23.7062H80.1663V3.18727H88.2493V0.264382Z" fill="#161616"/>
<path d="M112.071 7.19706C111.451 5.74296 110.581 4.4798 109.445 3.3929C108.309 2.306 106.997 1.46879 105.477 0.881273C103.958 0.293758 102.306 0 100.521 0C98.7367 0 97.0404 0.308445 95.5064 0.910649C93.9872 1.51285 92.6597 2.35006 91.5387 3.43696C90.4177 4.52387 89.5474 5.78702 88.9132 7.24113C88.2789 8.69523 87.9692 10.2815 87.9692 12C87.9692 13.7185 88.2789 15.3048 88.9132 16.7589C89.5474 18.213 90.4177 19.4761 91.5387 20.563C92.6597 21.6499 93.9872 22.4871 95.5212 23.0894C97.0552 23.6916 98.722 24 100.521 24C102.321 24 103.973 23.7062 105.477 23.1187C106.997 22.5312 108.309 21.694 109.445 20.6071C110.581 19.5202 111.451 18.257 112.071 16.8029C112.69 15.3488 113 13.7625 113 12.0147C113 10.2668 112.69 8.68054 112.071 7.22644V7.19706ZM108.944 15.5692C108.486 16.6561 107.852 17.6108 107.026 18.4333C106.2 19.2558 105.241 19.8727 104.135 20.328C103.029 20.7687 101.819 21.0037 100.521 21.0037C99.2234 21.0037 97.9844 20.7834 96.8782 20.328C95.7719 19.8874 94.7984 19.2558 93.9724 18.4333C93.1464 17.6255 92.4974 16.6707 92.0402 15.5692C91.5829 14.4823 91.3469 13.2778 91.3469 11.9853C91.3469 10.6928 91.5829 9.50306 92.0402 8.40147C92.4974 7.31456 93.1464 6.35985 93.9724 5.53733C94.7984 4.7295 95.7719 4.09792 96.8782 3.64259C97.9844 3.20196 99.2087 2.96695 100.521 2.96695C101.834 2.96695 103.029 3.18727 104.135 3.64259C105.241 4.08323 106.215 4.71481 107.026 5.53733C107.837 6.35985 108.486 7.29988 108.944 8.40147C109.401 9.48837 109.637 10.6928 109.637 11.9853C109.637 13.2778 109.401 14.4823 108.944 15.5692Z" fill="#161616"/>
</svg>
