<svg width="24" height="24" viewBox="0 0 24 24" fill="none" xmlns="http://www.w3.org/2000/svg">
<path d="M11.6 4C14.032 4 16 5.968 16 8.4L16 16.8C16 18.568 14.568 20 12.8 20C11.032 20 9.6 18.568 9.6 16.8L9.6 10C9.6 8.896 10.496 8 11.6 8C12.704 8 13.6 8.896 13.6 10L13.6 16L12 16L12 9.928C12 9.488 11.2 9.488 11.2 9.928L11.2 16.8C11.2 17.68 11.92 18.4 12.8 18.4C13.68 18.4 14.4 17.68 14.4 16.8L14.4 8.4C14.4 6.856 13.144 5.6 11.6 5.6C10.056 5.6 8.8 6.856 8.8 8.4L8.8 16L7.2 16L7.2 8.4C7.2 5.968 9.168 4 11.6 4Z" fill="black"/>
</svg>
