<?xml version="1.0" encoding="UTF-8"?>
<svg width="30px" height="30px" viewBox="0 0 30 30" version="1.1" xmlns="http://www.w3.org/2000/svg" xmlns:xlink="http://www.w3.org/1999/xlink">
    <title>apple</title>
    <g id="apple" stroke="none" stroke-width="1" fill="none" fill-rule="evenodd">
        <path d="M23.3000331,23.8969005 C22.2751411,25.4200153 21.214309,26.9352351 19.5406982,26.9662076 C17.8934434,26.9983946 17.3669209,25.9744825 15.4872534,25.9744825 C13.60519,25.9744825 13.0163712,26.9352351 11.4619617,26.9983946 C9.84585505,27.0597322 8.61730248,25.3519974 7.58462349,23.835563 C5.47374137,20.7334616 3.86182769,15.0642923 6.02901598,11.2382863 C7.10182809,9.33803664 9.02462367,8.1361849 11.1073527,8.10521247 C12.6953063,8.07484734 14.1934097,9.19289133 15.1619955,9.19289133 C16.1335763,9.19289133 17.9527446,7.8501454 19.8659561,8.04812603 C20.6656234,8.08092037 22.9136769,8.37606941 24.3554741,10.5234912 C24.2416638,10.599404 21.6749414,12.1182677 21.7048914,15.2841358 C21.7360395,19.0658088 24.9628619,20.322925 25,20.3405368 C24.9706489,20.4285957 24.4854575,22.1345085 23.3000331,23.8969005 M16.2725447,3.89356933 C17.1578693,2.83807751 18.6547746,2.05283532 19.8899162,2 C20.0480526,3.46663564 19.468219,4.93509319 18.6110475,5.99301422 C17.753277,7.04850605 16.3474199,7.87140099 14.9691169,7.76208653 C14.7822284,6.32703062 15.4764714,4.83063716 16.2725447,3.89356933" id="Fill-37" fill="#000000"></path>
    </g>
</svg>