<?xml version="1.0" encoding="UTF-8"?>
<svg width="30px" height="30px" viewBox="0 0 30 30" version="1.1" xmlns="http://www.w3.org/2000/svg" xmlns:xlink="http://www.w3.org/1999/xlink">
    <title>kakaotalk</title>
    <g id="kakaotalk" stroke="none" stroke-width="1" fill="none" fill-rule="evenodd">
        <path d="M15,3.00775098 C22.7291846,3.00775098 28.9948327,7.94806148 28.9948327,14.0421383 C28.9948327,20.1363497 22.7291846,25.0765256 15,25.0765256 C14.1516978,25.0765256 13.3210238,25.0171821 12.5143024,24.9029358 C12.1717145,25.144363 11.1347576,25.8732047 10.0206335,26.6371402 L9.54022662,26.965371 C8.17588439,27.8939733 6.82776802,28.7790437 6.60094734,28.8107237 C6.60094734,28.8107237 6.42036017,28.880967 6.26682071,28.7905389 C6.11328125,28.7001107 6.14113635,28.463006 6.14113635,28.463006 C6.16924136,28.2714181 6.60905905,26.7154738 6.99826832,25.3570543 L7.13278209,24.8883571 C7.32914224,24.2052436 7.49607357,23.6289928 7.56497601,23.3913593 C3.62462322,21.4392148 1.00516732,17.9820874 1.00516732,14.0421383 C1.00516732,7.94806148 7.27081539,3.00775098 15,3.00775098 Z M9.32967058,10.7452787 L5.19527405,10.7452787 C4.75847379,10.7452787 4.40295122,11.0999938 4.40295122,11.5358521 C4.40295122,11.9717104 4.75833923,12.3264256 5.19527405,12.3264256 L6.45507813,12.3264256 L6.45507813,17.12302 C6.45507813,17.5482476 6.81719442,17.8940814 7.26247232,17.8940814 C7.70775022,17.8940814 8.06986651,17.5482476 8.06986651,17.12302 L8.06986651,12.3264256 L9.32967058,12.3264256 C9.76647084,12.3264256 10.1219934,11.9717104 10.1219934,11.5358521 C10.1219934,11.0999938 9.76660541,10.7452787 9.32967058,10.7452787 Z M12.0388818,10.7454132 C11.512999,10.7573896 11.0997478,11.155704 10.9637019,11.5423113 L9.03241495,16.6256651 C8.78723625,17.3871724 9.00119571,17.6694913 9.22376738,17.7721649 C9.38484801,17.8457631 9.55990316,17.8837666 9.73700095,17.8835859 C10.0736843,17.8835859 10.3311085,17.7470011 10.4084838,17.5275245 L10.8085476,16.4801996 L13.2705616,16.4803342 L13.6703563,17.5269862 C13.7480007,17.7468665 14.0055595,17.8835859 14.3422429,17.8835859 C14.5193213,17.8837205 14.6943574,17.8457669 14.8554764,17.7722995 C15.0780481,17.669895 15.2920076,17.3874416 15.0462906,16.6241849 L13.1158111,11.5431187 C12.979496,11.155704 12.5662448,10.757255 12.0388818,10.7454132 Z M20.83127,10.7452787 C20.3859921,10.7452787 20.0238758,11.107395 20.0238758,11.5526729 L20.0238758,17.0761911 C20.0238758,17.521469 20.3859921,17.8835853 20.83127,17.8835853 C21.2771367,17.8829921 21.6384144,17.5216542 21.6389333,17.0757874 L21.6389333,15.3141878 L21.9190991,15.0340221 L23.812573,17.5428649 C23.9646185,17.7459352 24.2038656,17.8649847 24.4575464,17.8638041 C24.6329226,17.8642327 24.8035723,17.8069712 24.9431941,17.7008451 C25.1145774,17.5723473 25.2273917,17.380592 25.256463,17.1683686 C25.2868906,16.9562773 25.2310557,16.7408382 25.1014433,16.5702241 L23.1140425,13.9373116 L24.9539593,12.0976639 C25.0804511,11.9710376 25.1438315,11.7965059 25.1321243,11.6060954 C25.1205516,11.4172998 25.0361789,11.2355015 24.8947504,11.0942075 C24.7430949,10.9426865 24.540708,10.8557571 24.3391286,10.8557571 C24.1663463,10.8557571 24.0071551,10.9195412 23.891294,11.0354023 L21.6386642,13.2880321 L21.6386642,11.5526729 C21.6386642,11.107395 21.2765479,10.7452787 20.83127,10.7452787 Z M16.3961191,10.7452787 C15.9416908,10.7452787 15.5719042,11.107395 15.5719042,11.5526729 L15.5719042,17.0362251 C15.5719042,17.4442283 15.9189492,17.7763364 16.345657,17.7763364 L18.9360467,17.7763364 C19.3627545,17.7763364 19.7097995,17.4442283 19.7097995,17.0362251 C19.7097995,16.6282219 19.3627545,16.2961137 18.9360467,16.2961137 L17.220334,16.2961137 L17.220334,11.5526729 C17.220334,11.107395 16.8505475,10.7452787 16.3961191,10.7452787 Z M12.0395546,12.7591889 L12.8460069,15.0501699 L11.2331024,15.0501699 L12.0395546,12.7591889 Z" id="Combined-Shape" fill="#000000" fill-rule="nonzero"></path>
    </g>
</svg>