<?xml version="1.0" encoding="UTF-8"?>
<svg width="30px" height="30px" viewBox="0 0 30 30" version="1.1" xmlns="http://www.w3.org/2000/svg" xmlns:xlink="http://www.w3.org/1999/xlink">
    <title>youtube</title>
    <g id="youtube" stroke="none" stroke-width="1" fill="none" fill-rule="evenodd">
        <path d="M15.1483289,5.00027594 C15.172514,5.00034493 15.1995041,5.00043116 15.2291901,5.00053895 L15.566208,5.00220754 C16.4189206,5.00745045 18.1267145,5.02514528 19.9413935,5.08486533 L20.5171304,5.10515575 C22.731051,5.18855513 24.9861891,5.33809886 25.9553394,5.60624622 C27.1546141,5.93280279 28.1003194,6.88871503 28.4231025,8.10142344 C28.9418925,10.0171472 28.9948303,13.7296142 28.9996639,14.6979997 L28.9996926,15.0205067 C28.9962088,15.6628995 28.9532418,19.7068482 28.4233161,21.7425031 C28.1003194,22.9549956 27.1548278,23.9111238 25.9553394,24.2374644 C24.0170389,24.7533161 16.934954,24.8128374 15.3264324,24.8197053 L15.1485389,24.8203357 C15.1243544,24.820402 15.1029748,24.8204518 15.0845091,24.8204891 L14.9155882,24.8204847 C14.8971689,24.8204459 14.8758426,24.8203941 14.8517179,24.8203252 L14.6742575,24.8196698 C13.0695945,24.8125298 6.00306359,24.7506496 4.04454286,24.2143549 C2.84505449,23.8877983 1.89956288,22.9316701 1.57656619,21.7191777 C1.04674861,19.7049569 1.00379043,15.6430499 1.00030733,14.997604 L1.00030733,14.8234159 C1.00379043,14.1809949 1.04674861,10.13688 1.57656619,8.10142344 C1.89934922,6.88893099 2.86812568,5.90947732 4.04432926,5.58313672 C5.89835587,5.08971334 12.4586049,5.01380205 14.4332607,5.00212339 L14.7702705,5.00051841 C14.7999558,5.00041473 14.8269452,5.00033178 14.8511298,5.00026542 Z M12.3327222,10.6663611 L12.3327222,19.15424 L19.7011946,14.9103006 L12.3327222,10.6663611 Z" id="Combined-Shape" fill="#000000" fill-rule="nonzero"></path>
    </g>
</svg>