<?xml version="1.0" encoding="UTF-8"?>
<svg width="30px" height="30px" viewBox="0 0 30 30" version="1.1" xmlns="http://www.w3.org/2000/svg" xmlns:xlink="http://www.w3.org/1999/xlink">
    <title>foundation</title>
    <g id="foundation" stroke="none" stroke-width="1" fill="none" fill-rule="evenodd">
        <path d="M25.5539763,18.8487197 C24.2778841,18.8487197 23.0017919,18.8487197 21.7256997,18.8487197 C21.6639533,18.8487197 21.602207,18.8528315 21.5404606,18.8446078 C21.3264064,18.8240485 21.1699822,18.6801332 21.1411672,18.4663161 C21.1288179,18.3923025 21.1329343,18.3141771 21.1329343,18.2401635 C21.1329343,15.6990301 21.1329343,13.1578968 21.1329343,10.6167635 C21.1329343,10.6044279 21.1329343,10.5879804 21.1329343,10.5756448 C21.1000029,10.1603628 21.3716871,10 21.7051176,10 C24.2737677,10.0123356 26.8465341,10.0082237 29.4193006,10.0082237 C29.4686977,10.0082237 29.5139784,10.0082237 29.5633755,10.0123356 C29.7856625,10.0328949 29.9462032,10.1809057 29.9750182,10.4029464 C29.983251,10.47696 29.983251,10.5550855 29.983251,10.6290991 C29.983251,13.1620087 29.9791346,15.6990301 29.9873674,18.2319397 C29.9873674,18.6184552 29.8638746,18.8651671 29.3575542,18.8569434 C28.0896949,18.8363841 26.8218356,18.8487197 25.5539763,18.8487197 Z" id="Path" fill="#000000" fill-rule="nonzero"></path>
        <path d="M20.0229231,15.008202 C20.0011297,17.7779064 17.7564039,19.9901859 14.9842765,19.9640566 C12.2470186,19.9422822 10.0371624,17.6864539 10.0589558,14.938524 C10.0807493,12.1993038 12.3298338,9.98268245 15.075809,10.000102 C17.8174256,10.0175215 20.0447166,12.2733368 20.0229231,15.008202 Z" id="Path" fill="#000000" fill-rule="nonzero"></path>
        <path d="M5.62916459,19.9600534 C3.93559648,19.9600534 2.24202837,19.9600534 0.548460266,19.9600534 C0.471273516,19.9600534 0.398627163,19.9642857 0.321440412,19.9558954 C0.13982453,19.9351055 0.0490165882,19.7978919 0.117122544,19.6398883 C0.13982453,19.5899925 0.176147706,19.5442546 0.203390089,19.4943587 C1.91057939,16.7833506 3.62230908,14.0723424 5.32949838,11.3613342 C5.36128116,11.3114383 5.38852354,11.2615425 5.42484672,11.2199626 C5.54743744,11.0661337 5.73359372,11.0702916 5.85618444,11.2282786 C5.88342682,11.2615425 5.90158841,11.2989644 5.9242904,11.3363863 C7.64056049,14.0598684 9.35229019,16.7833506 11.0776411,19.4985167 C11.2683378,19.7978919 11.1412066,19.9683694 10.7825153,19.9642857 C9.06624517,19.9517374 7.34543468,19.9600534 5.62916459,19.9600534 Z" id="Path" fill="#000000" fill-rule="nonzero"></path>
    </g>
</svg>