<?xml version="1.0" encoding="UTF-8"?>
<svg width="30px" height="30px" viewBox="0 0 30 30" version="1.1" xmlns="http://www.w3.org/2000/svg" xmlns:xlink="http://www.w3.org/1999/xlink">
    <title>line-messenger</title>
    <g id="line-messenger" stroke="none" stroke-width="1" fill="none" fill-rule="evenodd">
        <path d="M14.8515,3.2576 C22.5058,3.2576 28.7108,8.2263 28.7108,14.3555 C28.7108,16.4964 27.9532,18.4953 26.6417,20.1906 C26.5768,20.2871 26.492,20.3937 26.3851,20.5115 L26.377,20.5203 C25.929,21.0563 25.4245,21.5595 24.8698,22.024 C21.0372,25.5665 14.7288,29.7841 13.8962,29.1334 C13.1724,28.5678 15.0883,25.8013 12.8779,25.3409 C12.7237,25.3232 12.5699,25.3042 12.4174,25.2826 C5.9224,24.3599 0.9923,19.8188 0.9923,14.3555 C0.9923,8.2263 7.1972,3.2576 14.8515,3.2576 Z M23.4079,11.1016 L20.6127,11.1016 C20.2151,11.1016 19.8899,11.4268 19.8899,11.8244 L19.8899,17.1853 C19.8899,17.5829 20.2151,17.9082 20.6127,17.9082 L23.4079,17.9082 C23.8055,17.9082 24.1308,17.5829 24.1308,17.1853 L24.1308,17.125 C24.1308,16.7274 23.8055,16.4022 23.4079,16.4022 L21.3959,16.4022 L21.3959,15.2577 L23.4079,15.2577 C23.8055,15.2579 24.1308,14.9326 24.1308,14.5351 L24.1308,14.4748 C24.1308,14.0772 23.8055,13.752 23.4079,13.752 L21.3959,13.752 L21.3959,12.6075 L23.4079,12.6075 C23.8055,12.6075 24.1308,12.2823 24.1308,11.8847 L24.1308,11.8244 C24.1308,11.4268 23.8055,11.1016 23.4079,11.1016 Z M6.8706,11.0887 L6.8103,11.0887 C6.4127,11.0887 6.0875,11.4139 6.0875,11.8115 L6.0875,17.1724 C6.0875,17.5701 6.4127,17.8954 6.8103,17.8954 L9.6055,17.8954 C10.0031,17.8954 10.3283,17.5701 10.3283,17.1725 L10.3283,17.1122 C10.3283,16.7146 10.0031,16.3894 9.6055,16.3894 L7.5934,16.3894 L7.5934,11.8115 C7.5934,11.4139 7.2682,11.0887 6.8706,11.0887 Z M14.2183,11.0889 L14.158,11.0889 C13.7604,11.0889 13.4351,11.4141 13.4351,11.8117 L13.4351,17.1726 C13.4351,17.5702 13.7603,17.8955 14.158,17.8955 L14.2183,17.8955 C14.6159,17.8955 14.9411,17.5702 14.9411,17.1726 L14.9411,13.9668 L17.5725,17.5609 L17.5979125,17.597925 L17.6256,17.6335 C17.6979,17.7321 17.7968,17.7997 17.907,17.841 C17.9917,17.876 18.0843,17.8954 18.1812,17.8954 L18.2415,17.8954 C18.3592945,17.8955 18.4752869,17.8664763 18.5792,17.811 C18.6515,17.7766 18.7124,17.7322 18.7553,17.6799 C18.8892539,17.5447433 18.9643642,17.3625379 18.9645,17.1726 L18.9645,11.8117 C18.9645,11.4141 18.6393,11.0889 18.2416,11.0889 L18.1813,11.0889 C17.7837,11.0889 17.4585,11.4141 17.4585,11.8117 L17.4585,14.9586 L14.8459,11.4544 C14.7211,11.2365 14.4861,11.0889 14.2183,11.0889 Z M11.6948,11.0888 L11.6345,11.0888 C11.2369,11.0888 10.9116,11.414 10.9116,11.8116 L10.9116,17.1725 C10.9116,17.5701 11.2369,17.8954 11.6345,17.8954 L11.6948,17.8954 C12.0924,17.8954 12.4176,17.5701 12.4176,17.1725 L12.4176,11.8116 C12.4176,11.414 12.0924,11.0888 11.6948,11.0888 Z" id="Combined-Shape" fill="#000000"></path>
    </g>
</svg>