<?xml version="1.0" encoding="UTF-8"?>
<svg width="30px" height="30px" viewBox="0 0 30 30" version="1.1" xmlns="http://www.w3.org/2000/svg" xmlns:xlink="http://www.w3.org/1999/xlink">
    <title>pinterest2</title>
    <g id="pinterest2" stroke="none" stroke-width="1" fill="none" fill-rule="evenodd">
        <path d="M15.0009196,2 C7.82090683,2 2,7.82031341 2,14.9988099 C2,20.323301 5.20049265,24.896161 9.78199831,26.9066052 C9.74321462,25.9981026 9.77350593,24.9095762 10.0062081,23.9222591 C10.2575177,22.8662431 11.6807222,16.8372905 11.6807222,16.8372905 C11.6807222,16.8372905 11.2658936,16.0072236 11.2658936,14.7812453 C11.2658936,12.8542676 12.3821822,11.4158095 13.7715794,11.4158095 C14.9553744,11.4158095 15.5252837,12.3045139 15.5252837,13.3672917 C15.5252837,14.5552962 14.7682174,16.3343278 14.3786496,17.9805596 C14.0532345,19.3599474 15.0699945,20.4851492 16.4291005,20.4851492 C18.892703,20.4851492 20.5520174,17.3203467 20.5520174,13.5730098 C20.5520174,10.7244387 18.6329551,8.59168872 15.1425314,8.59168872 C11.1983872,8.59168872 8.74322294,11.5321649 8.74322294,14.8166226 C8.74322294,15.9498302 9.07545364,16.7478737 9.59987184,17.3658935 C9.83938951,17.6508588 9.87308859,17.7655374 9.78540608,18.0910188 C9.72298436,18.3304913 9.58131842,18.9063181 9.52062763,19.1339442 C9.43451378,19.463699 9.16816667,19.5808658 8.86974323,19.4602911 C7.05372546,18.7174231 6.20886853,16.730131 6.20886853,14.4937376 C6.20886853,10.800278 9.32335551,6.37292988 15.498346,6.37292988 C20.4624958,6.37292988 23.7304948,9.96350344 23.7304948,13.8191358 C23.7304948,18.918922 20.8942551,22.7296025 16.7141092,22.7296025 C15.311135,22.7296025 13.9908127,21.9698574 13.5388773,21.1081457 C13.5388773,21.1081457 12.7834879,24.1043383 12.6250536,24.681842 C12.3484831,25.6834939 11.8088652,26.6864441 11.3164151,27.4671776 C12.4850645,27.8120246 13.7210038,28 15.0009196,28 C22.1808241,28 28,22.1797948 28,14.9987018 C28,7.82031341 22.1808241,2 15.0009196,2 Z" id="Path" fill="#000000" fill-rule="nonzero"></path>
    </g>
</svg>