<?xml version="1.0" encoding="UTF-8"?>
<svg width="30px" height="30px" viewBox="0 0 30 30" version="1.1" xmlns="http://www.w3.org/2000/svg" xmlns:xlink="http://www.w3.org/1999/xlink">
    <title>tictok</title>
    <g id="tictok" stroke="none" stroke-width="1" fill="none" fill-rule="evenodd">
        <path d="M19.9658992,3 C20.2973517,6.08267781 22.8389712,8.49053151 26,8.71652533 L26,12.7099694 C25.7959735,12.729026 25.5946513,12.7390132 25.3931798,12.7398988 C23.1833062,12.7402005 21.1222216,11.6508412 19.9116876,9.84272786 L19.9116876,19.7083304 C19.9116876,23.7354083 16.5735926,27 12.4558438,27 C8.33809496,27 5,23.7354083 5,19.7083304 C5,15.6812524 8.33809496,12.4166607 12.4558438,12.4166607 C12.6114835,12.4166607 12.7636258,12.4303428 12.9166424,12.4397492 L12.9166424,16.0329937 C12.7636258,16.015036 12.6132323,15.9876719 12.4558438,15.9876719 C10.3542321,15.9876719 8.6505392,17.6538503 8.6505392,19.7091855 C8.6505392,21.7645207 10.3542321,23.4306991 12.4558438,23.4306991 C14.5578549,23.4306991 16.414165,21.8110881 16.414165,19.7553624 L16.450889,3 L19.9658992,3 Z" id="Combined-Shape" fill="#000000"></path>
    </g>
</svg>