<?xml version="1.0" encoding="UTF-8"?>
<svg width="30px" height="30px" viewBox="0 0 30 30" version="1.1" xmlns="http://www.w3.org/2000/svg" xmlns:xlink="http://www.w3.org/1999/xlink">
    <title>twitch</title>
    <g id="twitch" stroke="none" stroke-width="1" fill="none" fill-rule="evenodd">
        <path d="M20.4560669,24.8242678 L15.5439331,24.8242678 L12.2719665,28.1046025 L9,28.1046025 L9,24.8242678 L3,24.8242678 L3,7.36820084 L4.63179916,3 L27,3 L27,18.2803347 L20.4560669,24.8242678 L20.4560669,24.8242678 Z M24.8242678,17.1924686 L24.8242678,5.18410042 L6.81589958,5.18410042 L6.81589958,21.0083682 L11.7280335,21.0083682 L11.7280335,24.2803347 L15,21.0083682 L21,21.0083682 L24.8242678,17.1924686 Z" id="Shape" fill="#000000"></path>
        <path d="M18.8158996,9.55230126 L18.8158996,16.1046025 L21,16.1046025 L21,9.55230126 L18.8158996,9.55230126 Z M12.8158996,16.0962343 L15,16.0962343 L15,9.55230126 L12.8158996,9.55230126 L12.8158996,16.0962343 L12.8158996,16.0962343 Z" id="Shape" fill="#000000" fill-rule="nonzero"></path>
    </g>
</svg>