<?xml version="1.0" encoding="UTF-8"?>
<svg width="30px" height="30px" viewBox="0 0 30 30" version="1.1" xmlns="http://www.w3.org/2000/svg" xmlns:xlink="http://www.w3.org/1999/xlink">
    <title>weibo</title>
    <g id="weibo" stroke="none" stroke-width="1" fill="none" fill-rule="evenodd">
        <g id="sina-weibo" transform="translate(1, 3)" fill="#000000" fill-rule="nonzero">
            <path d="M12.1705234,21.7669501 C7.3744288,22.2400106 3.23437832,20.0727152 2.92234325,16.9234724 C2.61107864,13.775 6.24802072,10.8387885 11.0433448,10.3645723 C15.8398247,9.88997078 19.9802604,12.0580367 20.291525,15.2057386 C20.6024044,18.3553666 16.9670032,21.2923486 12.1705234,21.7669501 M21.7638682,11.3137752 C21.3559113,11.192043 21.0762354,11.1084485 21.289652,10.5725956 C21.7523114,9.40843518 21.8000797,8.40452976 21.2985122,7.68800478 C20.3581695,6.34471307 17.7848433,6.4167508 14.8351488,7.65217853 C14.8351488,7.65025239 13.9090595,8.05743889 14.1455898,7.32280818 C14.5993889,5.86394793 14.5308183,4.64238842 13.8246945,3.93703507 C12.2248406,2.33564028 7.96922157,3.99751594 4.31956695,7.64562965 C1.58675611,10.3788257 0,13.2753587 0,15.7801142 C0,20.5712009 6.14400903,23.4839134 12.154729,23.4839134 C20.0338071,23.4839134 25.2752258,18.9058581 25.2752258,15.2716126 C25.2752258,13.0754251 23.4257439,11.8292109 21.7638682,11.3137752" id="Shape"></path>
            <path d="M26.9960414,2.54636026 C25.093398,0.436849097 22.2866233,-0.367122742 19.6959617,0.183368757 L19.6951913,0.183368757 C19.3076284,0.266152528 18.9936701,0.549410248 18.8715814,0.926441474 C18.7494928,1.3034727 18.8378221,1.71699742 19.1032964,2.01124487 C19.3687707,2.30549233 19.7710582,2.43575933 20.1586211,2.35297556 C22.0015542,1.96158342 23.995882,2.5348034 25.3495749,4.03257173 C26.6551289,5.47939265 27.0893878,7.51293438 26.4886955,9.3668305 L26.4890808,9.36721573 C26.3981808,9.64720307 26.422444,9.95185508 26.5565146,10.2139253 C26.6905853,10.4759954 26.9234398,10.6739357 27.2036796,10.7640542 C27.786058,10.9523639 28.410922,10.6334677 28.6001328,10.0513815 L28.6005181,10.0467588 C29.4125797,7.52659405 28.8994554,4.65356004 26.9960414,2.54636026" id="Path"></path>
            <path d="M24.0736982,5.1832492 C23.1476089,4.15584485 21.780433,3.7656084 20.5180393,4.03411265 C20.1760415,4.09667947 19.8951042,4.34023668 19.7846685,4.66990478 C19.6742328,4.99957289 19.7517645,5.36321384 19.9870605,5.61916865 C20.2223566,5.87512346 20.5782042,5.98291207 20.9159803,5.90054463 L20.9159803,5.90131509 C21.5542843,5.76481777 22.2169794,5.9785241 22.6552869,6.46220776 C23.0928676,6.94715738 23.2378761,7.6290057 23.0355074,8.25005313 L23.0362779,8.25005313 C22.8740676,8.75181945 23.1490816,9.29012273 23.6507173,9.45273645 C24.1527024,9.61459838 24.690886,9.33904011 24.8530154,8.83714134 C25.2498007,7.60941817 25.0017136,6.21026833 24.0736982,5.1832492" id="Path"></path>
            <path d="M12.4351753,16.0636424 C12.2672157,16.3510228 11.8966259,16.4889346 11.6061637,16.3691286 C11.3203241,16.2512487 11.2305659,15.9307386 11.3931323,15.6487513 C11.5603215,15.368305 11.917043,15.2315489 12.2017269,15.3444208 C12.4914187,15.4503587 12.5954304,15.7751063 12.4351753,16.0636424 M10.906974,18.0256111 C10.4431589,18.765635 9.44965462,19.0899973 8.70115569,18.7482997 C7.96382837,18.4127657 7.74617428,17.5525505 8.21075983,16.8310175 C8.66879649,16.1125664 9.62878587,15.7920563 10.3715064,16.1033209 C11.1227019,16.423831 11.3630845,17.2778826 10.906974,18.0256111 M12.6501328,12.7872742 C10.3676541,12.1932519 7.78777896,13.3308316 6.79658608,15.3421095 C5.78690223,17.3930659 6.76345643,19.6697662 9.06866366,20.4144129 C11.4574655,21.1844846 14.2727152,20.0045298 15.2515808,17.7902365 C16.2173486,15.6260228 15.0119687,13.3978613 12.6501328,12.7872742" id="Shape"></path>
        </g>
    </g>
</svg>