<svg width="16" height="16" viewBox="0 0 16 16" fill="none" xmlns="http://www.w3.org/2000/svg">
<path d="M8.5625 2.71875L13.8438 8L8.5625 13.2812L7.55469 12.2734L9.35156 10.4844C9.60677 10.2292 9.875 9.96875 10.1563 9.70312C10.4323 9.44271 10.7083 9.18229 10.9844 8.92187C11.2604 8.66667 11.5313 8.41927 11.7969 8.17969L11.8906 8.64844C11.6667 8.66406 11.4401 8.67708 11.2109 8.6875C10.9766 8.69792 10.7422 8.70573 10.5078 8.71094C10.2734 8.72135 10.0417 8.72656 9.8125 8.72656L2.15625 8.72656L2.15625 7.27344L9.8125 7.27344C10.0417 7.27344 10.2734 7.27604 10.5078 7.28125C10.7422 7.29167 10.9766 7.30208 11.2109 7.3125C11.4401 7.32292 11.6667 7.33594 11.8906 7.35156L11.7969 7.82031C11.599 7.64323 11.3984 7.45833 11.1953 7.26562C10.987 7.07292 10.7786 6.8776 10.5703 6.67969C10.3568 6.48698 10.1484 6.29167 9.94531 6.09375C9.74219 5.89583 9.54427 5.70312 9.35156 5.51562L7.55469 3.71875L8.5625 2.71875Z" fill="white"/>
</svg>
