<svg width="16" height="16" viewBox="0 0 16 16" fill="none" xmlns="http://www.w3.org/2000/svg">
<path d="M7.4375 13.2812L2.15625 8L7.4375 2.71875L8.44531 3.72656L6.64844 5.51562C6.39323 5.77083 6.125 6.03125 5.84375 6.29688C5.56771 6.55729 5.29167 6.81771 5.01562 7.07812C4.73958 7.33333 4.46875 7.58073 4.20312 7.82031L4.10938 7.35156C4.33333 7.33594 4.5599 7.32292 4.78906 7.3125C5.02344 7.30208 5.25781 7.29427 5.49219 7.28906C5.72656 7.27865 5.95833 7.27344 6.1875 7.27344H13.8438V8.72656H6.1875C5.95833 8.72656 5.72656 8.72396 5.49219 8.71875C5.25781 8.70833 5.02344 8.69792 4.78906 8.6875C4.5599 8.67708 4.33333 8.66406 4.10938 8.64844L4.20312 8.17969C4.40104 8.35677 4.60156 8.54167 4.80469 8.73438C5.01302 8.92708 5.22135 9.1224 5.42969 9.32031C5.64323 9.51302 5.85156 9.70833 6.05469 9.90625C6.25781 10.1042 6.45573 10.2969 6.64844 10.4844L8.44531 12.2812L7.4375 13.2812Z" fill="white"/>
</svg>
