<svg width="16" height="16" viewBox="0 0 16 16" fill="none" xmlns="http://www.w3.org/2000/svg">
<path d="M8.75 11.2139H7.25V6.76074H8.75V11.2139Z" fill="white"/>
<path d="M8.75 6.28711H7.25V4.78711H8.75V6.28711Z" fill="white"/>
<path fill-rule="evenodd" clip-rule="evenodd" d="M8 2C8.78791 2 9.56796 2.15552 10.2959 2.45703C11.0239 2.75856 11.685 3.20066 12.2422 3.75781C12.7993 4.31496 13.2414 4.97615 13.543 5.7041C13.8445 6.43204 14 7.21209 14 8C14 8.78791 13.8445 9.56796 13.543 10.2959C13.2414 11.0239 12.7993 11.685 12.2422 12.2422C11.685 12.7993 11.0239 13.2414 10.2959 13.543C9.56796 13.8445 8.78791 14 8 14C7.21209 14 6.43204 13.8445 5.7041 13.543C4.97615 13.2414 4.31496 12.7993 3.75781 12.2422C3.20066 11.685 2.75856 11.0239 2.45703 10.2959C2.15552 9.56796 2 8.78791 2 8C2 7.21209 2.15552 6.43204 2.45703 5.7041C2.75856 4.97615 3.20066 4.31496 3.75781 3.75781C4.31496 3.20066 4.97615 2.75856 5.7041 2.45703C6.43204 2.15552 7.21209 2 8 2ZM8 3.5C7.40914 3.5 6.82421 3.6167 6.27832 3.84277C5.73236 4.06892 5.23622 4.4005 4.81836 4.81836C4.4005 5.23622 4.06892 5.73236 3.84277 6.27832C3.6167 6.82421 3.5 7.40914 3.5 8C3.5 8.59086 3.6167 9.17579 3.84277 9.72168C4.06892 10.2676 4.4005 10.7638 4.81836 11.1816C5.23622 11.5995 5.73236 11.9311 6.27832 12.1572C6.82421 12.3833 7.40914 12.5 8 12.5C8.59086 12.5 9.17579 12.3833 9.72168 12.1572C10.2676 11.9311 10.7638 11.5995 11.1816 11.1816C11.5995 10.7638 11.9311 10.2676 12.1572 9.72168C12.3833 9.17579 12.5 8.59086 12.5 8C12.5 7.40914 12.3833 6.82421 12.1572 6.27832C11.9311 5.73236 11.5995 5.23622 11.1816 4.81836C10.7638 4.4005 10.2676 4.06892 9.72168 3.84277C9.17579 3.6167 8.59086 3.5 8 3.5Z" fill="white"/>
</svg>
