<svg width="24" height="24" viewBox="0 0 24 24" fill="none" xmlns="http://www.w3.org/2000/svg">
<path d="M16.198 14.608H15.3639L15.0682 14.3231C16.3352 12.8458 16.9899 10.8304 16.6309 8.68827C16.1346 5.75477 13.6851 3.41219 10.7288 3.05342C6.26258 2.50471 2.50381 6.26128 3.05284 10.7248C3.41183 13.6794 5.75578 16.1275 8.691 16.6235C10.8343 16.9823 12.851 16.328 14.3292 15.0618L14.6142 15.3572V16.1909L19.1015 20.6755C19.5344 21.1082 20.2418 21.1082 20.6747 20.6755C21.1076 20.2429 21.1076 19.5359 20.6747 19.1032L16.198 14.608ZM9.86297 14.608C7.23395 14.608 5.11172 12.487 5.11172 9.85956C5.11172 7.23207 7.23395 5.11109 9.86297 5.11109C12.492 5.11109 14.6142 7.23207 14.6142 9.85956C14.6142 12.487 12.492 14.608 9.86297 14.608Z" fill="black"/>
</svg>
